<svg width="96" height="48" viewBox="0 0 96 48" fill="none" xmlns="http://www.w3.org/2000/svg">
  <path d="M18 19H58C61.5 19 64 21.2 64 24V26H74C75.7 26 77 27.3 77 29C77 30.7 75.7 32 74 32H62.5C60 32 58 30 58 27.5V26H44.5L35.5 39C34.5 40.4 32.9 41.2 31.2 41.2H28.5C27.1 41.2 26 40.1 26 38.7V30.8L18 28.7C15.6 28.1 14 25.9 14 23.4C14 21 15.8 19 18 19Z" fill="#D7DDE6"/>
  <path d="M21 16H56.5C58.1 16 59.6 16.8 60.4 18.2L63 22H18L19.2 18.7C19.5 17.1 20.8 16 21 16Z" fill="#F4F7FB"/>
  <rect x="60" y="23" width="18" height="4" rx="2" fill="#8E99A8"/>
  <path d="M27 29H39L33 38H29.5C28.1 38 27 36.9 27 35.5V29Z" fill="#14181F"/>
  <rect x="44" y="20" width="9" height="2" rx="1" fill="#929CAC" fill-opacity="0.75"/>
</svg>
