<svg width="128" height="48" viewBox="0 0 128 48" fill="none" xmlns="http://www.w3.org/2000/svg">
  <path d="M16 21H86L97 16H110L102.5 21H115C117.2 21 119 22.8 119 25C119 27.2 117.2 29 115 29H102V31.5C102 33.4 100.4 35 98.5 35H90L78 40H66L75 35H53.5L49.5 41C48.8 42.1 47.5 42.8 46.2 42.8H42.2C40.8 42.8 39.7 41.7 39.7 40.3V35H30.5L25 39H17.5L23 35H16C13.8 35 12 33.2 12 31V25C12 22.8 13.8 21 16 21Z" fill="#CDD4DE"/>
  <path d="M23 18H84L94.5 14H104L97 18H115C116.7 18 118 19.3 118 21C118 22.7 116.7 24 115 24H23C21.3 24 20 22.7 20 21C20 19.3 21.3 18 23 18Z" fill="#F4F7FB"/>
  <path d="M44 29H57L49.5 40H46C44.9 40 44 39.1 44 38V29Z" fill="#171B22"/>
  <rect x="86" y="21" width="17" height="4" rx="2" fill="#919BAA"/>
  <rect x="57" y="19" width="16" height="2" rx="1" fill="#919BAA" fill-opacity="0.72"/>
</svg>
